<svg xmlns="http://www.w3.org/2000/svg" xmlns:xlink="http://www.w3.org/1999/xlink" width="1920" zoomAndPan="magnify" viewBox="0 0 1440 809.999993" height="1080" preserveAspectRatio="xMidYMid meet" version="1.0"><path fill="#5c8dbc" d="M 821.683594 357.917969 C 821.683594 354.070312 820.855469 350.671875 819.191406 347.753906 C 817.558594 344.886719 815.117188 342.484375 811.835938 340.582031 C 784.757812 324.960938 757.660156 309.386719 730.585938 293.746094 C 723.285156 289.53125 716.210938 289.6875 708.96875 293.960938 C 698.195312 300.320312 644.230469 331.253906 628.144531 340.574219 C 621.527344 344.410156 618.304688 350.277344 618.304688 357.910156 C 618.292969 389.328125 618.304688 420.742188 618.292969 452.164062 C 618.296875 455.921875 619.082031 459.25 620.671875 462.125 C 622.304688 465.078125 624.785156 467.554688 628.140625 469.5 C 644.222656 478.816406 698.1875 509.742188 708.964844 516.105469 C 716.214844 520.390625 723.289062 520.539062 730.585938 516.320312 C 757.660156 500.679688 784.765625 485.105469 811.847656 469.492188 C 815.207031 467.546875 817.683594 465.070312 819.320312 462.117188 C 820.90625 459.25 821.691406 455.914062 821.691406 452.148438 C 821.691406 452.148438 821.691406 389.339844 821.683594 357.917969 " fill-opacity="1" fill-rule="nonzero"/><path fill="#1a4674" d="M 720.300781 404.730469 L 620.671875 462.125 C 622.304688 465.078125 624.785156 467.554688 628.140625 469.5 C 644.222656 478.816406 698.1875 509.742188 708.964844 516.105469 C 716.214844 520.386719 723.289062 520.539062 730.585938 516.320312 C 757.660156 500.679688 784.765625 485.105469 811.847656 469.492188 C 815.207031 467.546875 817.683594 465.070312 819.320312 462.117188 L 720.304688 404.730469 " fill-opacity="1" fill-rule="nonzero"/><path fill="#1a4674" d="M 690.792969 421.730469 C 696.589844 431.859375 707.488281 438.691406 719.992188 438.691406 C 732.574219 438.691406 743.53125 431.769531 749.300781 421.539062 L 720.300781 404.730469 L 690.792969 421.730469 " fill-opacity="1" fill-rule="nonzero"/><path fill="#1b598e" d="M 821.683594 357.917969 C 821.683594 354.070312 820.855469 350.671875 819.191406 347.753906 L 720.300781 404.730469 L 819.320312 462.117188 C 820.902344 459.25 821.691406 455.914062 821.691406 452.148438 C 821.691406 452.148438 821.691406 389.335938 821.683594 357.917969 " fill-opacity="1" fill-rule="nonzero"/><path fill="#ffffff" d="M 816.238281 408.832031 L 808.503906 408.832031 L 808.503906 416.570312 L 800.761719 416.570312 L 800.761719 408.832031 L 793.023438 408.832031 L 793.023438 401.089844 L 800.761719 401.089844 L 800.761719 393.351562 L 808.503906 393.351562 L 808.503906 401.089844 L 816.238281 401.089844 L 816.238281 408.832031 " fill-opacity="1" fill-rule="nonzero"/><path fill="#ffffff" d="M 788.003906 408.832031 L 780.269531 408.832031 L 780.269531 416.570312 L 772.53125 416.570312 L 772.53125 408.832031 L 764.796875 408.832031 L 764.796875 401.089844 L 772.53125 401.089844 L 772.53125 393.351562 L 780.269531 393.351562 L 780.269531 401.089844 L 788.003906 401.089844 L 788.003906 408.832031 " fill-opacity="1" fill-rule="nonzero"/><path fill="#ffffff" d="M 749.300781 421.539062 C 743.53125 431.769531 732.574219 438.691406 719.992188 438.691406 C 707.488281 438.691406 696.589844 431.859375 690.792969 421.730469 C 687.976562 416.808594 686.359375 411.117188 686.359375 405.03125 C 686.359375 386.445312 701.417969 371.382812 719.992188 371.382812 C 732.414062 371.382812 743.253906 378.125 749.078125 388.152344 L 778.476562 371.214844 C 766.792969 351.027344 744.980469 337.449219 719.992188 337.449219 C 682.6875 337.449219 652.449219 367.710938 652.449219 405.03125 C 652.449219 417.277344 655.703125 428.761719 661.394531 438.667969 C 673.050781 458.957031 694.925781 472.621094 719.992188 472.621094 C 745.109375 472.621094 767.015625 458.898438 778.652344 438.554688 L 749.300781 421.539062 " fill-opacity="1" fill-rule="nonzero"/></svg>