<svg xmlns="http://www.w3.org/2000/svg" xmlns:xlink="http://www.w3.org/1999/xlink" width="1920" zoomAndPan="magnify" viewBox="0 0 1440 809.999993" height="1080" preserveAspectRatio="xMidYMid meet" version="1.0"><path fill="#ffcc80" d="M 783.152344 505.015625 L 765.824219 487.703125 L 754.273438 499.242188 L 771.601562 516.558594 C 774.792969 519.746094 779.964844 519.746094 783.152344 516.558594 C 786.335938 513.371094 786.34375 508.207031 783.152344 505.015625 Z M 799.488281 407.074219 L 782.160156 389.757812 L 770.609375 401.300781 L 787.9375 418.613281 C 791.128906 421.804688 796.304688 421.804688 799.488281 418.613281 C 802.675781 415.425781 802.679688 410.261719 799.488281 407.074219 Z M 658.644531 505.015625 L 675.972656 487.703125 L 687.523438 499.242188 L 670.195312 516.558594 C 667.003906 519.746094 661.832031 519.746094 658.644531 516.558594 C 655.460938 513.371094 655.453125 508.207031 658.644531 505.015625 Z M 640.945312 407.074219 L 658.273438 389.757812 L 669.824219 401.300781 L 652.496094 418.613281 C 649.304688 421.804688 644.132812 421.804688 640.945312 418.613281 C 637.761719 415.425781 637.757812 410.261719 640.945312 407.074219 Z M 640.945312 407.074219 " fill-opacity="1" fill-rule="nonzero"/><path fill="#4dd0e1" d="M 796.511719 317.667969 C 796.511719 307.148438 790.253906 301.34375 778.914062 301.34375 C 767.578125 301.34375 758.390625 315.308594 758.390625 325.828125 C 758.390625 331.269531 768.863281 333.992188 774.726562 333.992188 C 786.066406 333.992188 796.511719 328.183594 796.511719 317.667969 Z M 644.035156 317.667969 C 644.035156 307.148438 650.292969 301.34375 661.628906 301.34375 C 672.96875 301.34375 682.152344 315.308594 682.152344 325.828125 C 682.152344 331.269531 671.683594 333.992188 665.816406 333.992188 C 654.480469 333.992188 644.035156 328.183594 644.035156 317.667969 Z M 644.035156 317.667969 " fill-opacity="1" fill-rule="nonzero"/><path fill="#424242" d="M 780.171875 312.226562 C 779.816406 312.226562 779.460938 312.261719 779.109375 312.328125 C 778.761719 312.398438 778.417969 312.503906 778.089844 312.640625 C 777.757812 312.777344 777.445312 312.945312 777.148438 313.140625 C 776.851562 313.339844 776.574219 313.566406 776.324219 313.820312 C 776.070312 314.070312 775.84375 314.347656 775.644531 314.644531 C 775.445312 314.941406 775.277344 315.253906 775.140625 315.585938 C 775.003906 315.914062 774.902344 316.253906 774.832031 316.605469 C 774.761719 316.957031 774.726562 317.308594 774.726562 317.667969 C 774.726562 318.023438 774.761719 318.378906 774.832031 318.726562 C 774.902344 319.078125 775.003906 319.417969 775.140625 319.75 C 775.277344 320.078125 775.445312 320.390625 775.644531 320.691406 C 775.84375 320.988281 776.070312 321.261719 776.324219 321.515625 C 776.574219 321.765625 776.851562 321.992188 777.148438 322.191406 C 777.445312 322.390625 777.757812 322.558594 778.089844 322.695312 C 778.417969 322.832031 778.761719 322.933594 779.109375 323.003906 C 779.460938 323.074219 779.816406 323.109375 780.171875 323.109375 C 780.53125 323.109375 780.886719 323.074219 781.234375 323.003906 C 781.585938 322.933594 781.925781 322.832031 782.257812 322.695312 C 782.585938 322.558594 782.902344 322.390625 783.199219 322.191406 C 783.496094 321.992188 783.769531 321.765625 784.023438 321.515625 C 784.277344 321.261719 784.503906 320.988281 784.699219 320.691406 C 784.898438 320.390625 785.066406 320.078125 785.203125 319.75 C 785.339844 319.417969 785.445312 319.078125 785.515625 318.726562 C 785.582031 318.378906 785.617188 318.023438 785.617188 317.667969 C 785.617188 317.308594 785.582031 316.957031 785.515625 316.605469 C 785.445312 316.253906 785.339844 315.914062 785.203125 315.585938 C 785.066406 315.253906 784.898438 314.941406 784.699219 314.644531 C 784.503906 314.347656 784.277344 314.070312 784.023438 313.820312 C 783.769531 313.566406 783.496094 313.339844 783.199219 313.140625 C 782.902344 312.945312 782.585938 312.777344 782.257812 312.640625 C 781.925781 312.503906 781.585938 312.398438 781.234375 312.328125 C 780.886719 312.261719 780.53125 312.226562 780.171875 312.226562 Z M 660.371094 312.226562 C 660.015625 312.226562 659.660156 312.261719 659.308594 312.328125 C 658.957031 312.398438 658.617188 312.503906 658.289062 312.640625 C 657.957031 312.777344 657.644531 312.945312 657.347656 313.140625 C 657.046875 313.339844 656.773438 313.566406 656.519531 313.820312 C 656.269531 314.070312 656.042969 314.347656 655.84375 314.644531 C 655.644531 314.941406 655.476562 315.253906 655.339844 315.585938 C 655.203125 315.914062 655.101562 316.253906 655.03125 316.605469 C 654.960938 316.957031 654.925781 317.308594 654.925781 317.667969 C 654.925781 318.023438 654.960938 318.378906 655.03125 318.726562 C 655.101562 319.078125 655.203125 319.417969 655.339844 319.75 C 655.476562 320.078125 655.644531 320.390625 655.84375 320.691406 C 656.042969 320.988281 656.269531 321.261719 656.519531 321.515625 C 656.773438 321.765625 657.046875 321.992188 657.347656 322.191406 C 657.644531 322.390625 657.957031 322.558594 658.289062 322.695312 C 658.617188 322.832031 658.957031 322.933594 659.308594 323.003906 C 659.660156 323.074219 660.015625 323.109375 660.371094 323.109375 C 660.730469 323.109375 661.082031 323.074219 661.433594 323.003906 C 661.785156 322.933594 662.125 322.832031 662.457031 322.695312 C 662.785156 322.558594 663.097656 322.390625 663.398438 322.191406 C 663.695312 321.992188 663.96875 321.765625 664.222656 321.515625 C 664.476562 321.261719 664.699219 320.988281 664.898438 320.691406 C 665.097656 320.390625 665.265625 320.078125 665.402344 319.75 C 665.539062 319.417969 665.640625 319.078125 665.710938 318.726562 C 665.78125 318.378906 665.816406 318.023438 665.816406 317.667969 C 665.816406 317.308594 665.78125 316.957031 665.710938 316.605469 C 665.640625 316.253906 665.539062 315.914062 665.402344 315.585938 C 665.265625 315.253906 665.097656 314.941406 664.898438 314.644531 C 664.699219 314.347656 664.476562 314.070312 664.222656 313.820312 C 663.96875 313.566406 663.695312 313.339844 663.398438 313.140625 C 663.097656 312.945312 662.785156 312.777344 662.457031 312.640625 C 662.125 312.503906 661.785156 312.398438 661.433594 312.328125 C 661.082031 312.261719 660.730469 312.226562 660.371094 312.226562 Z M 660.371094 312.226562 " fill-opacity="1" fill-rule="nonzero"/><path fill="#4dd0e1" d="M 791.0625 459.140625 C 791.0625 485.117188 773.535156 513.554688 718.585938 513.554688 C 674.355469 513.554688 649.480469 485.117188 649.480469 459.140625 C 649.480469 431.933594 654.925781 427.550781 654.925781 404.726562 C 654.925781 379.21875 654.925781 366.636719 654.925781 350.316406 C 654.925781 324.335938 671.675781 290.460938 718.585938 290.460938 C 765.492188 290.460938 785.617188 312.175781 785.617188 344.875 C 785.617188 361.195312 784.328125 374.542969 785.617188 399.285156 C 786.632812 418.667969 791.0625 442.816406 791.0625 459.140625 Z M 791.0625 459.140625 " fill-opacity="1" fill-rule="nonzero"/><path fill="#f5f5f5" d="M 747.5 306.785156 C 746.785156 306.785156 746.074219 306.820312 745.363281 306.890625 C 744.65625 306.957031 743.949219 307.0625 743.25 307.203125 C 742.550781 307.339844 741.859375 307.515625 741.175781 307.722656 C 740.496094 307.929688 739.824219 308.167969 739.164062 308.441406 C 738.503906 308.714844 737.859375 309.019531 737.230469 309.355469 C 736.601562 309.691406 735.992188 310.054688 735.398438 310.453125 C 734.804688 310.847656 734.234375 311.273438 733.679688 311.722656 C 733.128906 312.175781 732.601562 312.65625 732.097656 313.160156 C 731.59375 313.664062 731.113281 314.191406 730.664062 314.742188 C 730.210938 315.292969 729.785156 315.863281 729.390625 316.457031 C 728.992188 317.050781 728.625 317.660156 728.289062 318.289062 C 727.953125 318.917969 727.648438 319.5625 727.375 320.21875 C 727.101562 320.878906 726.863281 321.550781 726.65625 322.230469 C 726.449219 322.914062 726.277344 323.605469 726.136719 324.304688 C 725.996094 325.003906 725.894531 325.707031 725.824219 326.414062 C 725.753906 327.125 725.71875 327.835938 725.71875 328.550781 C 725.71875 329.261719 725.753906 329.972656 725.824219 330.683594 C 725.894531 331.390625 725.996094 332.097656 726.136719 332.796875 C 726.277344 333.496094 726.449219 334.183594 726.65625 334.867188 C 726.863281 335.550781 727.101562 336.21875 727.375 336.878906 C 727.648438 337.535156 727.953125 338.179688 728.289062 338.808594 C 728.625 339.4375 728.992188 340.046875 729.390625 340.640625 C 729.785156 341.234375 730.210938 341.804688 730.664062 342.355469 C 731.113281 342.90625 731.59375 343.4375 732.097656 343.941406 C 732.601562 344.445312 733.128906 344.921875 733.679688 345.375 C 734.234375 345.828125 734.804688 346.25 735.398438 346.644531 C 735.992188 347.042969 736.601562 347.410156 737.230469 347.746094 C 737.859375 348.082031 738.503906 348.386719 739.164062 348.65625 C 739.824219 348.929688 740.496094 349.171875 741.175781 349.378906 C 741.859375 349.585938 742.550781 349.757812 743.25 349.894531 C 743.949219 350.035156 744.65625 350.140625 745.363281 350.210938 C 746.074219 350.28125 746.785156 350.316406 747.5 350.316406 C 748.214844 350.316406 748.925781 350.28125 749.636719 350.210938 C 750.34375 350.140625 751.050781 350.035156 751.75 349.894531 C 752.449219 349.757812 753.140625 349.585938 753.824219 349.378906 C 754.503906 349.171875 755.175781 348.929688 755.835938 348.65625 C 756.496094 348.386719 757.140625 348.082031 757.769531 347.746094 C 758.398438 347.410156 759.007812 347.042969 759.601562 346.644531 C 760.195312 346.25 760.765625 345.828125 761.320312 345.375 C 761.871094 344.921875 762.398438 344.445312 762.902344 343.941406 C 763.40625 343.4375 763.886719 342.90625 764.335938 342.355469 C 764.789062 341.804688 765.214844 341.234375 765.609375 340.640625 C 766.007812 340.046875 766.375 339.4375 766.710938 338.808594 C 767.046875 338.179688 767.351562 337.535156 767.625 336.878906 C 767.898438 336.21875 768.136719 335.550781 768.34375 334.867188 C 768.550781 334.183594 768.722656 333.496094 768.863281 332.796875 C 769.003906 332.097656 769.105469 331.390625 769.175781 330.683594 C 769.246094 329.972656 769.28125 329.261719 769.28125 328.550781 C 769.28125 327.835938 769.246094 327.125 769.175781 326.414062 C 769.105469 325.707031 769.003906 325.003906 768.863281 324.304688 C 768.722656 323.605469 768.550781 322.914062 768.34375 322.230469 C 768.136719 321.550781 767.898438 320.878906 767.625 320.21875 C 767.351562 319.5625 767.046875 318.917969 766.710938 318.289062 C 766.375 317.660156 766.007812 317.050781 765.609375 316.457031 C 765.214844 315.863281 764.789062 315.292969 764.335938 314.742188 C 763.886719 314.191406 763.40625 313.664062 762.902344 313.160156 C 762.398438 312.65625 761.871094 312.175781 761.320312 311.722656 C 760.765625 311.273438 760.195312 310.847656 759.601562 310.453125 C 759.007812 310.054688 758.398438 309.691406 757.769531 309.355469 C 757.140625 309.019531 756.496094 308.714844 755.835938 308.441406 C 755.175781 308.167969 754.503906 307.929688 753.824219 307.722656 C 753.140625 307.515625 752.449219 307.339844 751.75 307.203125 C 751.050781 307.0625 750.34375 306.957031 749.636719 306.890625 C 748.925781 306.820312 748.214844 306.785156 747.5 306.785156 Z M 693.042969 306.785156 C 692.332031 306.785156 691.621094 306.820312 690.910156 306.890625 C 690.199219 306.957031 689.496094 307.0625 688.796875 307.203125 C 688.09375 307.339844 687.402344 307.515625 686.722656 307.722656 C 686.039062 307.929688 685.367188 308.167969 684.707031 308.441406 C 684.050781 308.714844 683.40625 309.019531 682.777344 309.355469 C 682.148438 309.691406 681.535156 310.054688 680.941406 310.453125 C 680.351562 310.847656 679.777344 311.273438 679.226562 311.722656 C 678.675781 312.175781 678.148438 312.65625 677.640625 313.160156 C 677.136719 313.664062 676.660156 314.191406 676.207031 314.742188 C 675.753906 315.292969 675.328125 315.863281 674.933594 316.457031 C 674.535156 317.050781 674.171875 317.660156 673.835938 318.289062 C 673.5 318.917969 673.195312 319.5625 672.921875 320.21875 C 672.648438 320.878906 672.40625 321.550781 672.199219 322.230469 C 671.992188 322.914062 671.820312 323.605469 671.679688 324.304688 C 671.542969 325.003906 671.4375 325.707031 671.367188 326.414062 C 671.296875 327.125 671.261719 327.835938 671.261719 328.550781 C 671.261719 329.261719 671.296875 329.972656 671.367188 330.683594 C 671.4375 331.390625 671.542969 332.097656 671.679688 332.796875 C 671.820312 333.496094 671.992188 334.183594 672.199219 334.867188 C 672.40625 335.550781 672.648438 336.21875 672.921875 336.878906 C 673.195312 337.535156 673.5 338.179688 673.835938 338.808594 C 674.171875 339.4375 674.535156 340.046875 674.933594 340.640625 C 675.328125 341.234375 675.753906 341.804688 676.207031 342.355469 C 676.660156 342.90625 677.136719 343.4375 677.640625 343.941406 C 678.148438 344.445312 678.675781 344.921875 679.226562 345.375 C 679.777344 345.828125 680.351562 346.25 680.941406 346.644531 C 681.535156 347.042969 682.148438 347.410156 682.777344 347.746094 C 683.40625 348.082031 684.050781 348.386719 684.707031 348.65625 C 685.367188 348.929688 686.039062 349.171875 686.722656 349.378906 C 687.402344 349.585938 688.09375 349.757812 688.796875 349.894531 C 689.496094 350.035156 690.199219 350.140625 690.910156 350.210938 C 691.621094 350.28125 692.332031 350.316406 693.042969 350.316406 C 693.757812 350.316406 694.46875 350.28125 695.179688 350.210938 C 695.890625 350.140625 696.59375 350.035156 697.292969 349.894531 C 697.992188 349.757812 698.683594 349.585938 699.367188 349.378906 C 700.050781 349.171875 700.722656 348.929688 701.378906 348.65625 C 702.039062 348.386719 702.683594 348.082031 703.3125 347.746094 C 703.941406 347.410156 704.554688 347.042969 705.144531 346.644531 C 705.738281 346.25 706.3125 345.828125 706.863281 345.375 C 707.414062 344.921875 707.941406 344.445312 708.445312 343.941406 C 708.953125 343.4375 709.429688 342.90625 709.882812 342.355469 C 710.335938 341.804688 710.757812 341.234375 711.15625 340.640625 C 711.550781 340.046875 711.917969 339.4375 712.253906 338.808594 C 712.589844 338.179688 712.894531 337.535156 713.167969 336.878906 C 713.441406 336.21875 713.683594 335.550781 713.890625 334.867188 C 714.097656 334.183594 714.269531 333.496094 714.40625 332.796875 C 714.546875 332.097656 714.652344 331.390625 714.722656 330.683594 C 714.792969 329.972656 714.828125 329.261719 714.828125 328.550781 C 714.828125 327.835938 714.792969 327.125 714.722656 326.414062 C 714.652344 325.707031 714.546875 325.003906 714.40625 324.304688 C 714.269531 323.605469 714.097656 322.914062 713.890625 322.230469 C 713.683594 321.550781 713.441406 320.878906 713.167969 320.21875 C 712.894531 319.5625 712.589844 318.917969 712.253906 318.289062 C 711.917969 317.660156 711.550781 317.050781 711.15625 316.457031 C 710.757812 315.863281 710.335938 315.292969 709.882812 314.742188 C 709.429688 314.191406 708.953125 313.664062 708.445312 313.160156 C 707.941406 312.65625 707.414062 312.175781 706.863281 311.722656 C 706.3125 311.273438 705.738281 310.847656 705.144531 310.453125 C 704.554688 310.054688 703.941406 309.691406 703.3125 309.355469 C 702.683594 309.019531 702.039062 308.714844 701.378906 308.441406 C 700.722656 308.167969 700.050781 307.929688 699.367188 307.722656 C 698.683594 307.515625 697.992188 307.339844 697.292969 307.203125 C 696.59375 307.0625 695.890625 306.957031 695.179688 306.890625 C 694.46875 306.820312 693.757812 306.785156 693.042969 306.785156 Z M 693.042969 306.785156 " fill-opacity="1" fill-rule="nonzero"/><path fill="#eeeeee" d="M 720.273438 382.960938 C 720.273438 385.964844 722.710938 388.402344 725.71875 388.402344 C 728.722656 388.402344 731.164062 385.964844 731.164062 382.960938 L 731.164062 366.636719 L 720.273438 366.636719 Z M 709.382812 382.960938 C 709.382812 385.964844 711.820312 388.402344 714.828125 388.402344 C 717.832031 388.402344 720.273438 385.964844 720.273438 382.960938 L 720.273438 366.636719 L 709.382812 366.636719 Z M 709.382812 382.960938 " fill-opacity="1" fill-rule="nonzero"/><path fill="#ffcc80" d="M 733.886719 372.078125 C 731.640625 372.078125 730.332031 371.617188 728.378906 370.964844 C 723.070312 369.179688 717.375 369.191406 712.066406 370.976562 C 710.132812 371.621094 708.890625 372.078125 706.660156 372.078125 C 699.394531 372.078125 698.488281 366.636719 698.488281 363.917969 C 698.488281 355.757812 706.660156 350.316406 714.828125 350.316406 C 719.375 350.316406 721.171875 350.316406 725.71875 350.316406 C 733.886719 350.316406 742.054688 355.757812 742.054688 363.917969 C 742.054688 366.636719 741.152344 372.078125 733.886719 372.078125 Z M 733.886719 372.078125 " fill-opacity="1" fill-rule="nonzero"/><path fill="#424242" d="M 736.609375 323.109375 C 736.25 323.109375 735.898438 323.144531 735.546875 323.210938 C 735.195312 323.28125 734.855469 323.386719 734.523438 323.523438 C 734.195312 323.660156 733.878906 323.828125 733.582031 324.023438 C 733.285156 324.222656 733.011719 324.449219 732.757812 324.703125 C 732.503906 324.953125 732.28125 325.230469 732.082031 325.527344 C 731.882812 325.824219 731.714844 326.136719 731.578125 326.46875 C 731.441406 326.796875 731.335938 327.136719 731.269531 327.488281 C 731.199219 327.839844 731.164062 328.191406 731.164062 328.550781 C 731.164062 328.90625 731.199219 329.261719 731.269531 329.609375 C 731.335938 329.960938 731.441406 330.300781 731.578125 330.632812 C 731.714844 330.960938 731.882812 331.273438 732.082031 331.574219 C 732.28125 331.871094 732.503906 332.144531 732.757812 332.398438 C 733.011719 332.648438 733.285156 332.875 733.582031 333.074219 C 733.878906 333.273438 734.195312 333.441406 734.523438 333.578125 C 734.855469 333.714844 735.195312 333.816406 735.546875 333.886719 C 735.898438 333.957031 736.25 333.992188 736.609375 333.992188 C 736.964844 333.992188 737.320312 333.957031 737.671875 333.886719 C 738.023438 333.816406 738.363281 333.714844 738.691406 333.578125 C 739.023438 333.441406 739.335938 333.273438 739.632812 333.074219 C 739.929688 332.875 740.207031 332.648438 740.460938 332.398438 C 740.710938 332.144531 740.9375 331.871094 741.136719 331.574219 C 741.335938 331.273438 741.503906 330.960938 741.640625 330.632812 C 741.777344 330.300781 741.878906 329.960938 741.949219 329.609375 C 742.019531 329.261719 742.054688 328.90625 742.054688 328.550781 C 742.054688 328.191406 742.019531 327.839844 741.949219 327.488281 C 741.878906 327.136719 741.777344 326.796875 741.640625 326.46875 C 741.503906 326.136719 741.335938 325.824219 741.136719 325.527344 C 740.9375 325.230469 740.710938 324.953125 740.460938 324.703125 C 740.207031 324.449219 739.929688 324.222656 739.632812 324.023438 C 739.335938 323.828125 739.023438 323.660156 738.691406 323.523438 C 738.363281 323.386719 738.023438 323.28125 737.671875 323.210938 C 737.320312 323.144531 736.964844 323.109375 736.609375 323.109375 Z M 682.152344 323.109375 C 681.796875 323.109375 681.441406 323.144531 681.089844 323.210938 C 680.742188 323.28125 680.398438 323.386719 680.070312 323.523438 C 679.738281 323.660156 679.425781 323.828125 679.128906 324.023438 C 678.832031 324.222656 678.554688 324.449219 678.304688 324.703125 C 678.050781 324.953125 677.824219 325.230469 677.625 325.527344 C 677.425781 325.824219 677.257812 326.136719 677.121094 326.46875 C 676.984375 326.796875 676.882812 327.136719 676.8125 327.488281 C 676.742188 327.839844 676.707031 328.191406 676.707031 328.550781 C 676.707031 328.90625 676.742188 329.261719 676.8125 329.609375 C 676.882812 329.960938 676.984375 330.300781 677.121094 330.632812 C 677.257812 330.960938 677.425781 331.273438 677.625 331.574219 C 677.824219 331.871094 678.050781 332.144531 678.304688 332.398438 C 678.554688 332.648438 678.832031 332.875 679.128906 333.074219 C 679.425781 333.273438 679.738281 333.441406 680.070312 333.578125 C 680.398438 333.714844 680.742188 333.816406 681.089844 333.886719 C 681.441406 333.957031 681.796875 333.992188 682.152344 333.992188 C 682.511719 333.992188 682.863281 333.957031 683.214844 333.886719 C 683.566406 333.816406 683.90625 333.714844 684.238281 333.578125 C 684.566406 333.441406 684.882812 333.273438 685.179688 333.074219 C 685.476562 332.875 685.75 332.648438 686.003906 332.398438 C 686.257812 332.144531 686.484375 331.871094 686.679688 331.574219 C 686.878906 331.273438 687.046875 330.960938 687.183594 330.632812 C 687.320312 330.300781 687.425781 329.960938 687.496094 329.609375 C 687.5625 329.261719 687.597656 328.90625 687.597656 328.550781 C 687.597656 328.191406 687.5625 327.839844 687.496094 327.488281 C 687.425781 327.136719 687.320312 326.796875 687.183594 326.46875 C 687.046875 326.136719 686.878906 325.824219 686.679688 325.527344 C 686.484375 325.230469 686.257812 324.953125 686.003906 324.703125 C 685.75 324.449219 685.476562 324.222656 685.179688 324.023438 C 684.882812 323.828125 684.566406 323.660156 684.238281 323.523438 C 683.90625 323.386719 683.566406 323.28125 683.214844 323.210938 C 682.863281 323.144531 682.511719 323.109375 682.152344 323.109375 Z M 720.273438 344.875 C 719.558594 344.875 718.847656 344.90625 718.148438 344.976562 C 717.445312 345.046875 716.765625 345.152344 716.105469 345.289062 C 715.445312 345.425781 714.816406 345.589844 714.222656 345.789062 C 713.625 345.988281 713.078125 346.214844 712.570312 346.46875 C 712.066406 346.71875 711.613281 346.996094 711.214844 347.292969 C 710.820312 347.589844 710.484375 347.902344 710.210938 348.230469 C 709.9375 348.5625 709.730469 348.902344 709.589844 349.253906 C 709.449219 349.601562 709.382812 349.957031 709.382812 350.316406 C 709.382812 350.671875 709.449219 351.027344 709.589844 351.375 C 709.730469 351.726562 709.9375 352.066406 710.210938 352.398438 C 710.484375 352.726562 710.820312 353.039062 711.214844 353.335938 C 711.613281 353.632812 712.066406 353.910156 712.570312 354.164062 C 713.078125 354.414062 713.625 354.640625 714.222656 354.839844 C 714.816406 355.039062 715.445312 355.203125 716.105469 355.339844 C 716.765625 355.476562 717.445312 355.582031 718.148438 355.652344 C 718.847656 355.722656 719.558594 355.757812 720.273438 355.757812 C 720.988281 355.757812 721.695312 355.722656 722.398438 355.652344 C 723.097656 355.582031 723.78125 355.476562 724.441406 355.339844 C 725.101562 355.203125 725.726562 355.039062 726.324219 354.839844 C 726.917969 354.640625 727.46875 354.414062 727.972656 354.164062 C 728.480469 353.910156 728.929688 353.632812 729.328125 353.335938 C 729.726562 353.039062 730.0625 352.726562 730.335938 352.398438 C 730.609375 352.066406 730.816406 351.726562 730.953125 351.375 C 731.09375 351.027344 731.164062 350.671875 731.164062 350.316406 C 731.164062 349.957031 731.09375 349.601562 730.953125 349.253906 C 730.816406 348.902344 730.609375 348.5625 730.335938 348.230469 C 730.0625 347.902344 729.726562 347.589844 729.328125 347.292969 C 728.929688 346.996094 728.480469 346.71875 727.972656 346.46875 C 727.46875 346.214844 726.917969 345.988281 726.324219 345.789062 C 725.726562 345.589844 725.101562 345.425781 724.441406 345.289062 C 723.78125 345.152344 723.097656 345.046875 722.398438 344.976562 C 721.695312 344.90625 720.988281 344.875 720.273438 344.875 Z M 720.273438 344.875 " fill-opacity="1" fill-rule="nonzero"/></svg>