<svg xmlns="http://www.w3.org/2000/svg" xmlns:xlink="http://www.w3.org/1999/xlink" width="4000" zoomAndPan="magnify" viewBox="0 0 1440 809.999993" height="1400" preserveAspectRatio="xMidYMid meet" version="1.0"><defs><clipPath id="d4a0199678"><path d="M 604.5 303 L 835 303 L 835 506 L 604.5 506 Z M 604.5 303 " clip-rule="nonzero"/></clipPath></defs><path fill="#ffffff" d="M 719.695312 383.699219 C 708.308594 383.699219 699.085938 392.925781 699.085938 404.3125 C 699.085938 415.695312 708.308594 424.921875 719.695312 424.921875 C 731.082031 424.921875 740.304688 415.695312 740.304688 404.3125 C 740.304688 392.925781 731.082031 383.699219 719.695312 383.699219 Z M 719.695312 383.699219 " fill-opacity="1" fill-rule="nonzero"/><g clip-path="url(#d4a0199678)"><path fill="#ffffff" d="M 647.832031 440.808594 C 649.859375 441.480469 651.882812 442.164062 653.957031 442.75 C 653.285156 445.445312 652.699219 448.105469 652.152344 450.851562 C 647.429688 475.828125 651.117188 495.621094 662.902344 502.417969 C 675.058594 509.4375 695.484375 502.238281 715.375 484.824219 C 716.949219 483.429688 718.523438 481.992188 720.097656 480.457031 C 722.074219 482.394531 724.148438 484.238281 726.214844 486.03125 C 745.46875 502.59375 764.507812 509.292969 776.257812 502.503906 C 788.410156 495.488281 792.363281 474.207031 787.238281 448.285156 C 786.835938 446.308594 786.382812 444.285156 785.882812 442.210938 C 787.324219 441.808594 788.714844 441.355469 790.117188 440.90625 C 816.085938 432.3125 834.890625 418.402344 834.890625 404.136719 C 834.890625 390.507812 817.160156 377.277344 792.679688 368.859375 L 792.679688 368.851562 C 790.253906 368.042969 787.824219 367.277344 785.394531 366.554688 C 785.796875 364.894531 786.164062 363.226562 786.519531 361.5625 C 792.058594 334.742188 788.410156 313.203125 776.121094 306.089844 C 764.285156 299.292969 744.980469 306.355469 725.453125 323.367188 C 723.515625 325.027344 721.632812 326.785156 719.828125 328.542969 C 718.609375 327.371094 717.351562 326.199219 716.09375 325.074219 C 695.621094 306.894531 675.105469 299.242188 662.816406 306.40625 C 651.027344 313.25 647.515625 333.542969 652.46875 358.90625 C 652.96875 361.429688 653.507812 363.898438 654.128906 366.421875 C 651.25 367.226562 648.417969 368.128906 645.757812 369.082031 C 621.730469 377.402344 604.5 390.546875 604.5 404.136719 C 604.5 418.183594 622.855469 432.253906 647.832031 440.808594 Z M 709.03125 477.46875 C 701.609375 484.265625 693.007812 489.660156 683.648438 493.355469 C 678.65625 495.738281 672.898438 495.96875 667.761719 493.941406 C 660.609375 489.804688 657.632812 473.917969 661.683594 452.539062 C 662.183594 450.023438 662.722656 447.5 663.34375 445.023438 C 673.425781 447.183594 683.589844 448.671875 693.902344 449.429688 C 699.84375 457.847656 706.363281 465.902344 713.339844 473.457031 C 711.902344 474.847656 710.460938 476.203125 709.019531 477.460938 Z M 766.175781 392.972656 C 764.066406 389.007812 761.90625 385.054688 759.648438 381.1875 C 757.441406 377.363281 755.148438 373.582031 752.765625 369.847656 C 760.011719 370.75 766.945312 371.960938 773.425781 373.449219 C 771.351562 380.109375 768.921875 386.589844 766.175781 392.972656 Z M 766.261719 415.378906 C 769.144531 421.90625 771.667969 428.519531 773.867188 435.316406 C 766.886719 436.890625 759.832031 438.113281 752.71875 438.917969 C 755.148438 435.136719 757.441406 431.265625 759.695312 427.398438 C 761.992188 423.433594 764.152344 419.429688 766.261719 415.378906 Z M 761.058594 404.1875 C 758.046875 410.398438 754.800781 416.511719 751.34375 422.539062 C 747.929688 428.519531 744.28125 434.328125 740.460938 440.089844 C 733.757812 440.589844 726.78125 440.808594 719.714844 440.808594 C 712.648438 440.808594 705.8125 440.589844 699.199219 440.175781 C 695.285156 434.464844 691.597656 428.609375 688.132812 422.628906 C 684.667969 416.648438 681.46875 410.570312 678.457031 404.359375 L 678.4375 404.359375 C 681.402344 398.148438 684.648438 392.070312 688.066406 386.089844 C 691.480469 380.109375 695.179688 374.304688 699.046875 368.589844 C 705.796875 368.09375 712.679688 367.824219 719.703125 367.824219 C 726.730469 367.824219 733.652344 368.09375 740.363281 368.589844 C 744.183594 374.265625 747.832031 380.0625 751.296875 386.003906 C 754.761719 391.945312 757.996094 398.023438 761.058594 404.1875 Z M 679.683594 381.273438 C 677.476562 385.09375 675.316406 389 673.289062 392.964844 C 670.457031 386.265625 668.070312 379.699219 666.089844 373.351562 C 672.570312 371.914062 679.453125 370.742188 686.605469 369.839844 C 684.234375 373.574219 681.890625 377.394531 679.683594 381.273438 Z M 673.300781 415.734375 C 675.375 419.699219 677.484375 423.617188 679.730469 427.484375 C 682.027344 431.402344 684.367188 435.316406 686.84375 439.136719 C 679.828125 438.371094 672.847656 437.246094 665.964844 435.757812 C 667.945312 429.28125 670.421875 422.578125 673.300781 415.734375 Z M 720.058594 466.527344 C 715.472656 461.582031 710.882812 456.101562 706.429688 450.199219 C 710.75 450.378906 715.203125 450.464844 719.703125 450.464844 C 724.339844 450.464844 728.882812 450.378906 733.382812 450.148438 C 729.246094 455.859375 724.792969 461.3125 720.058594 466.527344 Z M 778.875 480.042969 C 778.464844 485.523438 775.765625 490.648438 771.445312 494.117188 C 764.296875 498.253906 749.042969 492.859375 732.570312 478.726562 C 730.675781 477.105469 728.785156 475.347656 726.855469 473.554688 C 733.738281 465.949219 740.085938 457.894531 745.84375 449.4375 C 756.144531 448.585938 766.40625 447.011719 776.535156 444.714844 C 776.984375 446.558594 777.390625 448.402344 777.753906 450.207031 C 779.960938 459.929688 780.316406 470.050781 778.875 480.042969 Z M 782.785156 375.828125 C 785.125 376.5 787.371094 377.222656 789.53125 377.941406 C 810.496094 385.140625 825.214844 395.855469 825.214844 404.042969 C 825.214844 412.863281 809.507812 424.25 787.054688 431.671875 C 785.796875 432.074219 784.539062 432.476562 783.234375 432.839844 C 780.085938 423.03125 776.21875 413.449219 771.761719 404.128906 C 776.082031 394.953125 779.730469 385.496094 782.785156 375.828125 Z M 731.789062 330.652344 C 748.542969 316.082031 764.152344 310.371094 771.265625 314.457031 C 778.867188 318.828125 781.796875 336.460938 777.023438 359.632812 C 776.707031 361.160156 776.390625 362.648438 775.988281 364.136719 C 765.996094 361.890625 755.875 360.269531 745.699219 359.367188 C 739.855469 350.984375 733.460938 342.980469 726.53125 335.460938 C 728.285156 333.800781 729.996094 332.226562 731.789062 330.652344 Z M 719.792969 342.355469 C 724.515625 347.480469 728.96875 352.875 733.105469 358.453125 C 724.199219 358.050781 715.242188 358.050781 706.332031 358.453125 C 710.738281 352.65625 715.289062 347.261719 719.792969 342.355469 Z M 667.589844 314.777344 C 675.152344 310.371094 691.933594 316.667969 709.617188 332.324219 C 710.738281 333.3125 711.863281 334.398438 713.03125 335.472656 C 706.054688 342.980469 699.621094 350.984375 693.726562 359.355469 C 683.5625 360.257812 673.484375 361.832031 663.488281 364.039062 C 662.902344 361.746094 662.414062 359.402344 661.914062 357.0625 C 657.683594 335.28125 660.476562 318.863281 667.589844 314.777344 Z M 648.917969 378.210938 C 651.480469 377.308594 654.089844 376.5 656.703125 375.734375 C 659.765625 385.496094 663.453125 395.085938 667.722656 404.351562 C 663.402344 413.757812 659.667969 423.472656 656.566406 433.371094 L 656.558594 433.378906 C 654.667969 432.839844 652.824219 432.253906 650.980469 431.621094 C 641.402344 428.609375 630.503906 423.835938 622.632812 417.585938 C 618.09375 414.4375 615.03125 409.582031 614.175781 404.128906 C 614.175781 395.890625 628.394531 385.363281 648.917969 378.210938 Z M 648.917969 378.210938 " fill-opacity="1" fill-rule="nonzero"/></g></svg>